<svg id="visual" viewBox="0 0 900 600" width="900" height="600" xmlns="http://www.w3.org/2000/svg" xmlns:xlink="http://www.w3.org/1999/xlink" version="1.1"><rect width="900" height="600" fill="#1509a8"></rect><g><g transform="translate(565 514)"><path d="M95.6 -30C109.4 11.6 96.3 63 63.1 87.2C30 111.3 -23.2 108.2 -59.1 82C-95 55.7 -113.7 6.4 -101 -33.7C-88.2 -73.7 -44.1 -104.4 -1.6 -103.9C40.8 -103.4 81.7 -71.6 95.6 -30Z" fill="none" stroke="#F7760E" stroke-width="4"></path></g><g transform="translate(25 408)"><path d="M61.8 -22.4C69.7 4.1 58.4 34.5 35.8 51.3C13.3 68.2 -20.5 71.5 -41 56.6C-61.5 41.7 -68.7 8.5 -59.6 -19.6C-50.6 -47.8 -25.3 -71 0.8 -71.2C27 -71.5 53.9 -48.9 61.8 -22.4Z" fill="none" stroke="#F7760E" stroke-width="4"></path></g><g transform="translate(833 32)"><path d="M68.3 -22.3C77 4.7 64.7 38.4 40.8 55.7C16.9 73 -18.7 73.8 -40.1 57.6C-61.6 41.5 -69 8.3 -60 -19.1C-50.9 -46.5 -25.5 -68.2 2.1 -68.9C29.8 -69.6 59.5 -49.3 68.3 -22.3Z" fill="none" stroke="#F7760E" stroke-width="4"></path></g><g transform="translate(146 19)"><path d="M63.4 -19.7C72.1 6.2 62.1 39 38.5 57.1C14.8 75.3 -22.5 78.8 -45.8 62.1C-69.2 45.3 -78.6 8.4 -68.6 -19.2C-58.7 -46.8 -29.3 -65 -1 -64.7C27.3 -64.4 54.7 -45.5 63.4 -19.7Z" stroke="#F7760E" fill="none" stroke-width="4"></path></g><g transform="translate(801 333)"><path d="M94.2 -28.3C106.9 8.6 91.6 56.8 58.9 80.5C26.1 104.2 -24.1 103.3 -53.1 80.5C-82.1 57.7 -89.8 13 -77.4 -23.4C-65 -59.8 -32.5 -87.9 4.1 -89.2C40.7 -90.5 81.5 -65.1 94.2 -28.3Z" stroke="#F7760E" fill="none" stroke-width="4"></path></g></g></svg>