<svg xmlns="http://www.w3.org/2000/svg" version="1.1" xmlns:xlink="http://www.w3.org/1999/xlink" xmlns:svgjs="http://svgjs.dev/svgjs" width="1440" height="250" preserveAspectRatio="none" viewBox="0 0 1440 250"><g mask="url(&quot;#SvgjsMask3648&quot;)" fill="none"><rect width="1440" height="250" x="0" y="0" fill="url(&quot;#SvgjsLinearGradient3649&quot;)"></rect><path d="M45 250L295 0L379 0L129 250z" fill="url(&quot;#SvgjsLinearGradient3650&quot;)"></path><path d="M262.6 250L512.6 0L584.6 0L334.6 250z" fill="url(&quot;#SvgjsLinearGradient3650&quot;)"></path><path d="M514.2 250L764.2 0L941.2 0L691.2 250z" fill="url(&quot;#SvgjsLinearGradient3650&quot;)"></path><path d="M737.8000000000001 250L987.8000000000001 0L1109.3000000000002 0L859.3000000000001 250z" fill="url(&quot;#SvgjsLinearGradient3650&quot;)"></path><path d="M1432 250L1182 0L970.5 0L1220.5 250z" fill="url(&quot;#SvgjsLinearGradient3651&quot;)"></path><path d="M1157.4 250L907.4000000000001 0L821.9000000000001 0L1071.9 250z" fill="url(&quot;#SvgjsLinearGradient3651&quot;)"></path><path d="M942.8 250L692.8 0L475.29999999999995 0L725.3 250z" fill="url(&quot;#SvgjsLinearGradient3651&quot;)"></path><path d="M686.1999999999999 250L436.19999999999993 0L310.19999999999993 0L560.1999999999999 250z" fill="url(&quot;#SvgjsLinearGradient3651&quot;)"></path><path d="M1251.8460310317876 250L1440 61.846031031787646L1440 250z" fill="url(&quot;#SvgjsLinearGradient3650&quot;)"></path><path d="M0 250L188.15396896821235 250L 0 61.846031031787646z" fill="url(&quot;#SvgjsLinearGradient3651&quot;)"></path></g><defs><mask id="SvgjsMask3648"><rect width="1440" height="250" fill="#ffffff"></rect></mask><linearGradient x1="20.66%" y1="-119%" x2="79.34%" y2="219%" gradientUnits="userSpaceOnUse" id="SvgjsLinearGradient3649"><stop stop-color="#0e2a47" offset="0"></stop><stop stop-color="rgba(26, 106, 209, 0.91)" offset="0.97"></stop></linearGradient><linearGradient x1="0%" y1="100%" x2="100%" y2="0%" id="SvgjsLinearGradient3650"><stop stop-color="rgba(124, 131, 145, 0.2)" offset="0"></stop><stop stop-opacity="0" stop-color="rgba(124, 131, 145, 0.2)" offset="0.66"></stop></linearGradient><linearGradient x1="100%" y1="100%" x2="0%" y2="0%" id="SvgjsLinearGradient3651"><stop stop-color="rgba(124, 131, 145, 0.2)" offset="0"></stop><stop stop-opacity="0" stop-color="rgba(124, 131, 145, 0.2)" offset="0.66"></stop></linearGradient></defs></svg>